<?xml version="1.0" standalone="no"?>
<!DOCTYPE svg PUBLIC "-//W3C//DTD SVG 20010904//EN"
 "http://www.w3.org/TR/2001/REC-SVG-20010904/DTD/svg10.dtd">
<svg version="1.0" xmlns="http://www.w3.org/2000/svg"
 width="260.000000pt" height="260.000000pt" viewBox="0 0 260.000000 260.000000"
 preserveAspectRatio="xMidYMid meet">
<metadata>
Created by potrace 1.11, written by Peter Selinger 2001-2013
</metadata>
<g transform="translate(0.000000,260.000000) scale(0.100000,-0.100000)"
fill="#000000" stroke="none">
<path d="M1955 1830 c-35 -50 -169 -178 -262 -250 -66 -50 -113 -113 -113
-149 0 -16 -8 -14 -86 14 -64 23 -186 60 -237 71 -57 13 -219 15 -286 5 -141
-22 -248 -79 -359 -191 -83 -83 -66 -135 45 -147 83 -9 123 9 199 88 38 39 89
82 113 97 130 76 342 82 560 15 72 -22 51 -28 -25 -7 -34 9 -111 18 -184 20
-144 4 -215 -9 -317 -58 -111 -53 -142 -103 -83 -133 52 -27 99 -19 172 28
106 70 188 92 343 92 89 0 137 -5 153 -13 36 -21 22 -23 -54 -9 -104 20 -218
9 -305 -27 -50 -21 -67 -43 -48 -62 25 -25 60 -25 118 1 81 36 138 45 243 41
71 -4 114 -12 179 -35 181 -64 401 -38 513 61 45 39 61 75 58 133 -3 50 -30
92 -126 200 -50 56 -134 177 -152 220 -8 19 -18 35 -23 35 -4 0 -21 -18 -36
-40z"/>
<path d="M739 1655 c-2 -1 -29 -5 -59 -8 -59 -6 -142 -32 -205 -65 -41 -20
-130 -93 -153 -124 -7 -9 -18 -23 -25 -30 -48 -49 -77 -140 -57 -178 18 -34
85 -59 144 -54 57 4 90 25 124 75 85 126 213 216 364 256 87 22 371 21 408 -2
4 -2 20 -6 37 -9 16 -3 78 -22 138 -41 59 -20 110 -34 112 -31 7 7 -18 18
-167 79 -190 77 -275 102 -410 123 -43 6 -247 14 -251 9z"/>
<path d="M270 1122 c-30 -5 -40 -18 -40 -54 0 -43 29 -55 125 -54 75 1 85 -1
85 -16 0 -15 -9 -18 -52 -19 -72 -2 -101 1 -113 11 -11 9 -40 8 -51 -2 -3 -4
-1 -16 6 -27 10 -19 19 -21 128 -21 79 0 122 4 130 12 16 16 15 73 -2 87 -8 7
-55 13 -107 14 -52 2 -93 6 -91 10 1 4 2 12 2 17 0 6 32 10 75 10 41 0 75 -4
75 -9 0 -5 11 -8 25 -8 27 0 36 29 13 43 -13 8 -164 12 -208 6z"/>
<path d="M615 1122 c-3 -3 -5 -45 -5 -94 0 -87 0 -88 25 -88 22 0 24 4 27 56
l3 56 47 -41 c25 -23 50 -41 55 -41 5 0 29 18 54 40 24 22 46 40 49 40 3 0 6
-24 5 -52 0 -50 1 -53 28 -56 24 -3 27 0 28 25 1 30 1 144 0 154 -1 3 -12 5
-26 5 -16 -1 -45 -21 -78 -54 l-53 -52 -58 52 c-53 47 -87 64 -101 50z"/>
<path d="M1132 1121 c-5 -4 -36 -44 -71 -91 -62 -85 -62 -85 -35 -88 16 -2 34
4 48 16 30 29 161 28 181 0 9 -14 22 -18 43 -16 l31 3 -45 60 c-85 114 -92
121 -119 121 -14 0 -29 -2 -33 -5z m63 -99 c-7 -7 -75 -10 -75 -4 0 2 9 17 21
33 l21 30 20 -26 c11 -14 17 -29 13 -33z"/>
<path d="M1418 1119 c-10 -5 -14 -32 -13 -91 l0 -83 33 -3 c31 -3 32 -2 32 32
l0 36 88 0 c48 0 93 4 101 9 18 11 22 66 6 88 -10 14 -31 17 -123 18 -61 1
-117 -2 -124 -6z m194 -40 c26 -16 -11 -33 -77 -35 -63 -2 -65 -1 -65 22 0 24
2 25 64 23 36 -1 71 -6 78 -10z"/>
<path d="M1822 1121 c-11 -9 -132 -169 -132 -175 0 -15 60 -4 72 13 19 27 150
27 175 -1 15 -17 73 -26 73 -10 0 4 -29 45 -64 93 -52 70 -68 85 -90 85 -14 0
-30 -2 -34 -5z m68 -102 c0 -3 -18 -5 -40 -5 -45 0 -48 6 -22 41 l17 24 22
-27 c13 -15 23 -30 23 -33z"/>
<path d="M2100 1118 c-11 -4 -20 -13 -21 -20 -5 -58 -3 -117 4 -134 9 -20 17
-22 124 -23 75 -1 120 2 129 10 17 14 19 59 2 60 -7 0 -21 2 -30 4 -12 2 -18
-3 -18 -16 0 -17 -8 -19 -75 -19 l-75 0 0 54 0 54 72 -1 c57 -2 73 -5 73 -17
0 -14 20 -16 52 -5 13 4 13 39 0 52 -10 9 -211 11 -237 1z"/>
<path d="M254 878 c-3 -4 9 -8 27 -8 18 0 29 3 25 7 -10 10 -46 11 -52 1z"/>
<path d="M325 880 c-3 -5 -1 -10 4 -10 6 0 11 5 11 10 0 6 -2 10 -4 10 -3 0
-8 -4 -11 -10z"/>
<path d="M374 879 c-3 -5 7 -9 22 -9 15 0 24 3 20 7 -11 11 -35 12 -42 2z"/>
<path d="M430 878 c0 -4 90 -7 201 -6 110 0 198 3 195 6 -9 8 -396 8 -396 0z"/>
<path d="M840 880 c0 -5 5 -10 11 -10 5 0 7 5 4 10 -3 6 -8 10 -11 10 -2 0 -4
-4 -4 -10z"/>
<path d="M894 878 c-3 -4 9 -8 27 -8 18 0 29 3 25 7 -10 10 -46 11 -52 1z"/>
<path d="M965 880 c-3 -5 -1 -10 4 -10 6 0 11 5 11 10 0 6 -2 10 -4 10 -3 0
-8 -4 -11 -10z"/>
<path d="M1014 879 c-3 -5 7 -9 22 -9 15 0 24 3 20 7 -11 11 -35 12 -42 2z"/>
<path d="M1075 880 c-3 -5 1 -10 10 -10 9 0 13 5 10 10 -3 6 -8 10 -10 10 -2
0 -7 -4 -10 -10z"/>
<path d="M1117 878 c-5 -3 36 -6 92 -6 57 -1 100 2 97 5 -8 8 -176 9 -189 1z"/>
<path d="M1320 880 c0 -5 5 -10 11 -10 5 0 7 5 4 10 -3 6 -8 10 -11 10 -2 0
-4 -4 -4 -10z"/>
<path d="M1374 878 c-3 -4 9 -8 27 -8 18 0 29 3 25 7 -10 10 -46 11 -52 1z"/>
<path d="M1445 880 c-3 -5 -1 -10 4 -10 6 0 11 5 11 10 0 6 -2 10 -4 10 -3 0
-8 -4 -11 -10z"/>
<path d="M1494 879 c-3 -5 7 -9 22 -9 15 0 24 3 20 7 -11 11 -35 12 -42 2z"/>
<path d="M1555 880 c-3 -5 1 -10 10 -10 9 0 13 5 10 10 -3 6 -8 10 -10 10 -2
0 -7 -4 -10 -10z"/>
<path d="M1600 880 c-12 -8 -10 -10 8 -10 13 0 20 4 17 10 -7 12 -6 12 -25 0z"/>
<path d="M1640 880 c0 -5 5 -10 11 -10 5 0 7 5 4 10 -3 6 -8 10 -11 10 -2 0
-4 -4 -4 -10z"/>
<path d="M1690 878 c0 -5 20 -8 45 -8 25 0 45 3 45 8 0 4 -20 7 -45 7 -25 0
-45 -3 -45 -7z"/>
<path d="M1814 878 c-3 -4 9 -8 27 -8 18 0 29 3 25 7 -10 10 -46 11 -52 1z"/>
<path d="M1880 880 c0 -5 5 -10 11 -10 5 0 7 5 4 10 -3 6 -8 10 -11 10 -2 0
-4 -4 -4 -10z"/>
<path d="M1930 878 c0 -5 20 -8 45 -8 25 0 45 3 45 8 0 4 -20 7 -45 7 -25 0
-45 -3 -45 -7z"/>
<path d="M2055 880 c-3 -5 1 -10 10 -10 9 0 13 5 10 10 -3 6 -8 10 -10 10 -2
0 -7 -4 -10 -10z"/>
<path d="M2090 878 c0 -5 20 -8 45 -8 25 0 45 3 45 8 0 4 -20 7 -45 7 -25 0
-45 -3 -45 -7z"/>
<path d="M2214 878 c-3 -4 23 -7 56 -7 34 1 59 3 57 6 -9 8 -108 9 -113 1z"/>
<path d="M255 809 c-4 -6 -5 -12 -2 -15 2 -3 7 2 10 11 7 17 1 20 -8 4z"/>
<path d="M418 795 c2 -14 6 -25 8 -25 2 0 4 11 4 25 0 14 -4 25 -9 25 -4 0 -6
-11 -3 -25z"/>
<path d="M464 801 c2 -14 9 -27 17 -29 11 -3 12 -2 1 6 -8 5 -13 12 -12 16 1
4 -1 12 -4 19 -2 6 -3 1 -2 -12z"/>
<path d="M612 800 c0 -14 2 -19 5 -12 2 6 2 18 0 25 -3 6 -5 1 -5 -13z"/>
<path d="M730 814 c1 -16 48 -45 55 -33 4 6 17 14 29 19 15 6 16 9 5 9 -9 1
-22 -6 -29 -14 -12 -14 -16 -13 -37 6 -12 13 -23 18 -23 13z"/>
<path d="M1127 813 c-3 -5 0 -17 4 -28 9 -19 9 -19 5 2 -2 12 1 24 8 27 8 3 8
5 -1 5 -6 1 -14 -2 -16 -6z"/>
<path d="M1355 809 c-4 -6 -5 -12 -2 -15 2 -3 7 2 10 11 7 17 1 20 -8 4z"/>
<path d="M1655 810 c5 -8 1 -19 -11 -28 -18 -14 -18 -14 -1 -8 10 3 21 6 23 6
9 0 3 29 -8 36 -7 5 -8 3 -3 -6z"/>
<path d="M1863 805 c-3 -9 -3 -18 -1 -21 3 -3 8 4 11 16 6 23 -1 27 -10 5z"/>
<path d="M1945 810 c-3 -6 1 -7 9 -4 18 7 21 14 7 14 -6 0 -13 -4 -16 -10z"/>
<path d="M1994 799 c0 -10 4 -19 8 -19 4 0 8 6 8 14 0 8 -4 17 -8 20 -4 2 -8
-4 -8 -15z"/>
<path d="M2036 805 c4 -8 8 -15 10 -15 2 0 4 7 4 15 0 8 -4 15 -10 15 -5 0 -7
-7 -4 -15z"/>
<path d="M2094 808 c-4 -7 -3 -10 1 -5 5 4 18 -1 29 -10 21 -18 21 -18 2 5
-22 26 -23 26 -32 10z"/>
<path d="M2204 795 c0 -13 3 -22 7 -19 8 4 6 30 -2 38 -3 3 -5 -5 -5 -19z"/>
<path d="M2290 798 c0 -12 3 -18 7 -14 11 10 12 36 2 36 -5 0 -9 -10 -9 -22z"/>
<path d="M279 808 c-5 -18 -6 -38 -1 -34 7 8 12 36 6 36 -2 0 -4 -1 -5 -2z"/>
<path d="M301 794 c0 -11 3 -14 6 -6 3 7 2 16 -1 19 -3 4 -6 -2 -5 -13z"/>
<path d="M330 790 c6 -11 13 -20 16 -20 2 0 0 9 -6 20 -6 11 -13 20 -16 20 -2
0 0 -9 6 -20z"/>
<path d="M531 794 c0 -11 3 -14 6 -7 3 10 10 10 25 2 12 -6 24 -7 29 -2 5 5 1
9 -9 9 -9 1 -25 4 -34 9 -14 5 -18 3 -17 -11z"/>
<path d="M640 795 c-7 -9 -8 -15 -2 -15 5 0 12 7 16 15 3 8 4 15 2 15 -2 0 -9
-7 -16 -15z"/>
<path d="M673 795 c0 -8 6 -16 14 -19 11 -4 11 -1 3 14 -13 24 -17 25 -17 5z"/>
<path d="M836 795 c-3 -8 -1 -15 4 -15 6 0 10 7 10 15 0 8 -2 15 -4 15 -2 0
-6 -7 -10 -15z"/>
<path d="M892 790 c0 -14 2 -19 5 -12 2 6 2 18 0 25 -3 6 -5 1 -5 -13z"/>
<path d="M915 801 c-3 -5 0 -13 6 -17 8 -4 9 -3 5 4 -11 18 19 15 34 -3 15
-18 30 -11 29 13 0 15 -1 15 -8 -1 -6 -17 -8 -17 -20 -3 -15 18 -37 21 -46 7z"/>
<path d="M1001 794 c0 -11 3 -14 6 -6 3 7 2 16 -1 19 -3 4 -6 -2 -5 -13z"/>
<path d="M1020 803 c0 -6 8 -17 18 -24 16 -13 16 -13 2 6 -8 11 -16 22 -17 24
-2 2 -3 0 -3 -6z"/>
<path d="M1102 790 c0 -14 2 -19 5 -12 2 6 2 18 0 25 -3 6 -5 1 -5 -13z"/>
<path d="M1205 793 c-5 -15 -4 -16 6 -5 15 14 33 16 25 3 -3 -5 1 -12 9 -15
13 -4 14 -2 5 14 -13 25 -36 26 -45 3z"/>
<path d="M1411 794 c0 -11 3 -14 6 -6 3 7 2 16 -1 19 -3 4 -6 -2 -5 -13z"/>
<path d="M1430 801 c0 -6 5 -13 10 -16 6 -3 10 1 10 9 0 9 -4 16 -10 16 -5 0
-10 -4 -10 -9z"/>
<path d="M1537 803 c-15 -14 -6 -25 10 -12 13 11 17 11 20 2 3 -7 9 -13 15
-13 6 0 6 6 -2 15 -13 16 -32 19 -43 8z"/>
<path d="M1601 794 c0 -11 3 -14 6 -6 3 7 2 16 -1 19 -3 4 -6 -2 -5 -13z"/>
<path d="M1680 803 c0 -6 8 -17 18 -24 16 -13 16 -13 2 6 -8 11 -16 22 -17 24
-2 2 -3 0 -3 -6z"/>
<path d="M1741 794 c0 -11 3 -14 6 -6 3 7 2 16 -1 19 -3 4 -6 -2 -5 -13z"/>
<path d="M1777 803 c-4 -3 -7 -11 -7 -17 0 -6 5 -5 12 2 15 15 31 16 22 0 -4
-7 -3 -8 5 -4 6 4 9 12 6 17 -7 11 -29 12 -38 2z"/>
<path d="M1910 801 c0 -5 7 -12 16 -15 14 -5 15 -4 4 9 -14 17 -20 19 -20 6z"/>
<path d="M2150 792 c0 -12 4 -22 9 -22 10 0 9 26 -2 36 -4 4 -7 -2 -7 -14z"/>
<path d="M2230 796 c0 -8 4 -17 9 -20 5 -4 7 3 4 14 -6 23 -13 26 -13 6z"/>
<path d="M230 791 c0 -6 4 -13 10 -16 6 -3 7 1 4 9 -7 18 -14 21 -14 7z"/>
<path d="M376 783 c-6 -14 -5 -15 5 -6 7 7 10 15 7 18 -3 3 -9 -2 -12 -12z"/>
<path d="M1270 791 c0 -6 4 -13 10 -16 6 -3 7 1 4 9 -7 18 -14 21 -14 7z"/>
<path d="M2078 783 c6 -2 18 -2 25 0 6 3 1 5 -13 5 -14 0 -19 -2 -12 -5z"/>
<path d="M1958 773 c7 -3 16 -2 19 1 4 3 -2 6 -13 5 -11 0 -14 -3 -6 -6z"/>
<path d="M818 733 c5 -21 7 -23 10 -9 2 10 0 22 -6 28 -6 6 -7 0 -4 -19z"/>
<path d="M221 747 c2 -1 11 -8 20 -15 13 -10 19 -9 30 5 13 16 12 17 -3 5 -11
-9 -18 -10 -23 -2 -3 5 -11 10 -17 10 -6 0 -9 -1 -7 -3z"/>
<path d="M393 736 c0 -8 9 -17 20 -20 18 -4 18 -4 1 15 -21 23 -21 23 -21 5z"/>
<path d="M452 730 c0 -14 2 -19 5 -12 2 6 2 18 0 25 -3 6 -5 1 -5 -13z"/>
<path d="M524 739 c-3 -6 -2 -15 3 -20 5 -5 9 -1 9 11 0 23 -2 24 -12 9z"/>
<path d="M620 728 c-9 -20 -9 -21 2 -7 7 9 20 18 28 22 12 4 12 6 -2 6 -10 1
-22 -9 -28 -21z"/>
<path d="M765 739 c-4 -6 -14 -8 -24 -4 -10 4 -13 3 -6 -4 18 -17 37 -17 40 2
4 19 -1 22 -10 6z"/>
<path d="M874 728 c-12 -14 -13 -18 -3 -10 9 6 20 8 24 4 5 -4 5 -1 1 6 -4 6
-2 12 3 12 6 0 11 -4 11 -10 0 -5 5 -10 11 -10 8 0 8 5 -1 15 -17 20 -23 19
-46 -7z"/>
<path d="M950 740 c0 -5 5 -10 10 -10 6 0 10 5 10 10 0 6 -4 10 -10 10 -5 0
-10 -4 -10 -10z"/>
<path d="M1002 731 c7 -9 14 -18 15 -20 2 -2 3 5 3 16 0 11 -7 20 -15 20 -12
0 -12 -3 -3 -16z"/>
<path d="M1041 734 c0 -11 3 -14 6 -6 3 7 2 16 -1 19 -3 4 -6 -2 -5 -13z"/>
<path d="M1082 730 c0 -14 2 -19 5 -12 2 6 2 18 0 25 -3 6 -5 1 -5 -13z"/>
<path d="M1240 735 c-7 -9 -10 -18 -6 -22 3 -3 6 -1 6 6 0 7 5 9 12 5 7 -4 8
-3 4 4 -4 7 -2 12 3 12 6 0 11 -4 11 -10 0 -5 5 -10 11 -10 8 0 8 5 -1 15 -16
19 -24 19 -40 0z"/>
<path d="M1314 733 c2 -9 8 -18 15 -19 6 -1 7 0 2 2 -6 3 -7 12 -4 20 3 8 1
14 -5 14 -6 0 -9 -8 -8 -17z"/>
<path d="M1377 731 c-4 -17 -3 -21 5 -13 5 5 8 16 6 23 -3 8 -7 3 -11 -10z"/>
<path d="M1410 736 c0 -8 4 -17 9 -20 5 -4 7 3 4 14 -6 23 -13 26 -13 6z"/>
<path d="M1467 744 c7 -3 9 -13 6 -22 -4 -14 -3 -14 5 -2 12 16 7 30 -11 29
-9 0 -9 -2 0 -5z"/>
<path d="M1572 730 c0 -14 2 -19 5 -12 2 6 2 18 0 25 -3 6 -5 1 -5 -13z"/>
<path d="M1625 740 c3 -5 8 -10 11 -10 2 0 4 5 4 10 0 6 -5 10 -11 10 -5 0 -7
-4 -4 -10z"/>
<path d="M1660 738 c0 -4 7 -8 15 -8 8 0 15 4 15 8 0 5 -7 9 -15 9 -8 0 -15
-4 -15 -9z"/>
<path d="M1800 736 c0 -8 4 -17 9 -20 5 -4 7 3 4 14 -6 23 -13 26 -13 6z"/>
<path d="M1918 743 c7 -3 16 -2 19 1 4 3 -2 6 -13 5 -11 0 -14 -3 -6 -6z"/>
<path d="M1982 730 c0 -14 2 -19 5 -12 2 6 2 18 0 25 -3 6 -5 1 -5 -13z"/>
<path d="M2034 735 c3 -23 12 -26 13 -5 1 11 -2 20 -7 20 -4 0 -7 -7 -6 -15z"/>
<path d="M2070 739 c0 -5 4 -8 9 -5 5 3 14 -1 21 -9 16 -19 26 -19 34 1 5 14
4 15 -7 5 -11 -9 -17 -8 -27 4 -14 17 -30 20 -30 4z"/>
<path d="M2153 735 c0 -8 4 -12 9 -9 5 3 6 10 3 15 -9 13 -12 11 -12 -6z"/>
<path d="M2190 727 c0 -11 1 -18 3 -16 1 2 8 11 15 20 9 13 9 16 -3 16 -8 0
-15 -9 -15 -20z"/>
<path d="M2275 739 c-4 -6 -4 -13 -1 -16 3 -4 6 -1 6 5 0 6 7 9 17 5 11 -4 14
-3 9 5 -9 15 -23 15 -31 1z"/>
<path d="M2333 729 c-2 -23 3 -25 10 -4 4 8 3 16 -1 19 -4 3 -9 -4 -9 -15z"/>
<path d="M366 723 c-6 -14 -5 -15 5 -6 7 7 10 15 7 18 -3 3 -9 -2 -12 -12z"/>
<path d="M1150 725 c0 -8 4 -15 10 -15 5 0 7 7 4 15 -4 8 -8 15 -10 15 -2 0
-4 -7 -4 -15z"/>
<path d="M650 726 c0 -2 7 -6 15 -10 8 -3 15 -1 15 4 0 6 -7 10 -15 10 -8 0
-15 -2 -15 -4z"/>
<path d="M1895 720 c-3 -6 1 -7 9 -4 18 7 21 14 7 14 -6 0 -13 -4 -16 -10z"/>
<path d="M1930 726 c0 -2 7 -6 15 -10 8 -3 15 -1 15 4 0 6 -7 10 -15 10 -8 0
-15 -2 -15 -4z"/>
</g>
</svg>
